<svg width="92" height="21" viewBox="0 0 92 21" fill="none" xmlns="http://www.w3.org/2000/svg">
<g clip-path="url(#clip0_45_1866)">
<path fill-rule="evenodd" clip-rule="evenodd" d="M28.1425 6.91458L25.7601 12.8519H29.0571L28.1533 6.89042L28.1425 6.91458ZM15.5212 20.5445L25.294 0.422621H32.6831L36.8034 20.5445H30.3168L29.8387 17.8626H23.5455L22.0978 20.5445H15.5212ZM39.8748 20.5445L42.7058 0.422621H49.2421L46.4124 20.5445H39.8748ZM83.3484 6.89042L80.9566 12.8519H84.2522L83.3484 6.89042ZM70.7163 20.5445L80.4905 0.422621H87.8783L91.9999 20.5445H85.512L85.0352 17.8626H78.7406L77.2929 20.5445H70.7163ZM56.2659 11.1356H64.4567L70.069 20.4303H61.8768L56.2659 11.1356Z" fill="white"/>
<path fill-rule="evenodd" clip-rule="evenodd" d="M57.1174 9.70799H65.5835L72.9364 0.452162H64.4702L57.1174 9.70799ZM48.6526 20.4868H57.1174L64.4702 11.1181H56.0041L48.6526 20.4868Z" fill="white"/>
<path fill-rule="evenodd" clip-rule="evenodd" d="M51.7055 0.339352H59.6062L65.0198 9.70799H57.1177L51.7055 0.339352ZM15.7149 1.14245L15.0864 7.06098C12.6772 3.7371 7.0934 6.0309 6.65492 10.1713C6.09772 15.4264 11.4718 16.6512 14.3961 13.557L13.7663 19.4889C12.8935 19.9173 12.0399 20.2504 11.1974 20.4747C10.3595 20.7003 9.51976 20.8198 8.68658 20.8373C7.63905 20.8601 6.68997 20.75 5.83489 20.5096C4.97982 20.2732 4.20599 19.8972 3.52134 19.3895C2.20092 18.4239 1.2462 17.1965 0.658105 15.7031C0.0700136 14.2043 -0.12351 12.5135 0.0768625 10.6239C0.238423 9.10498 0.620908 7.72037 1.23049 6.46469C1.83483 5.21034 2.67204 4.0688 3.7381 3.03471C4.74587 2.04896 5.84335 1.30496 7.03095 0.800002C8.21398 0.29907 9.505 0.0318081 10.9005 0.00226253C11.7341 -0.0151962 12.5519 0.0680745 13.3456 0.260121C14.1436 0.450824 14.9306 0.748958 15.7149 1.14245Z" fill="white"/>
</g>
<defs>
<clipPath id="clip0_45_1866">
<rect width="92" height="20.8404" fill="white"/>
</clipPath>
</defs>
</svg>
