<svg width="40" height="41" viewBox="0 0 40 41" fill="none" xmlns="http://www.w3.org/2000/svg">
<path d="M33 23.5C33 24.0527 32.7774 24.5525 32.4174 24.9144C32.0568 25.2762 31.5596 25.5 31.0103 25.5H7.98965C6.89123 25.5 6 24.6048 6 23.5C6 23.204 6.0637 22.9237 6.17814 22.6713C6.27773 22.4518 6.41504 22.2541 6.5826 22.0856C6.94316 21.7238 7.44044 21.5 7.98965 21.5H31.0104C31.8151 21.5 32.5084 21.9799 32.8219 22.6713C32.9363 22.9237 33 23.204 33 23.5Z" fill="#884D00"/>
<path d="M33 23.0003C32.9028 23.2807 32.7682 23.5347 32.6053 23.7498C32.2535 24.2133 31.7682 24.5 31.2323 24.5H8.76774C7.98317 24.5 7.30662 23.8852 7 23.0004C7.09718 22.7193 7.23112 22.4661 7.39469 22.2502C7.74654 21.7867 8.2318 21.5 8.76774 21.5H31.2323C32.0174 21.4999 32.694 22.1148 33 23.0003Z" fill="#AA6100"/>
<path d="M35 27.309C35 29.7286 33.8296 31.5265 31.9378 32.719C30.0453 33.9122 27.4314 34.5 24.5442 34.5H15.4558C9.68147 34.5 5 32.1482 5 27.309C5 27.0393 5.07014 26.7836 5.19699 26.5537C5.30434 26.3575 5.45252 26.1807 5.63246 26.03C6.02281 25.7026 6.56316 25.5 7.159 25.5H32.8411C33.7113 25.5 34.4615 25.9319 34.8031 26.5537C34.9299 26.7837 35 27.0394 35 27.309Z" fill="#FFA733"/>
<path d="M35 25.6164C34.6009 27.3234 33.6009 28.6531 32.1934 29.613C30.3397 30.8772 27.7793 31.5 24.9512 31.5H16.0488C11.0725 31.5 6.92537 29.5716 6 25.6164C6.10515 25.4086 6.2503 25.2212 6.42655 25.0616C6.80892 24.7146 7.33821 24.5 7.92185 24.5H33.0782C33.9307 24.5 34.6654 24.9577 35 25.6164Z" fill="#FFB655"/>
<path d="M28 20.5L22.9452 25.6751C22.8183 25.8044 22.6828 25.9188 22.5394 26.0177C21.4692 26.7595 20.003 26.6458 19.0548 25.6751L14 20.5H28Z" fill="#EEBF00"/>
<path d="M28 21.5L23.0561 26.1895C22.9319 26.3067 22.7994 26.4104 22.6592 26.5C22.282 26.3783 21.9279 26.1748 21.6273 25.8892L17 21.5H28Z" fill="#FFD422"/>
<path d="M35 21.7104C35 22.0145 34.9559 22.3256 34.8603 22.629C34.4858 23.8183 33.4833 24.28 32.702 23.6229L31.7649 22.8355C31.1111 22.2851 30.277 22.5104 29.8039 23.3656L29.764 23.4374C29.3099 24.2591 28.5182 24.5032 27.8716 24.0219L25.7734 22.4602C25.2892 22.1003 24.7089 22.1393 24.2505 22.5641L22.569 24.121C22.0861 24.5681 21.4708 24.5869 20.975 24.1691L19.0569 22.5509C18.5667 22.1372 17.9588 22.1505 17.4777 22.5857L15.7312 24.1643C15.2624 24.5877 14.6728 24.6121 14.1881 24.2291L11.9268 22.4407C11.4819 22.0891 10.9457 22.0793 10.4946 22.4149L8.38535 23.985C6.98074 24.1908 6.29749 23.0169 6.29749 23.0169C5.96107 22.3514 5.92733 21.5625 6.10938 20.9006C6.32569 20.1096 6.84968 19.5 7.53111 19.5H33.4699C34.1378 19.5 34.6716 20.1006 34.891 20.8971C34.962 21.1524 35 21.4279 35 21.7104Z" fill="#6DC82A"/>
<path d="M35 20.7429C34.9907 20.7739 34.9802 20.8043 34.9692 20.8353C34.5919 21.8939 33.5817 22.3046 32.7944 21.7202L31.8503 21.019C31.1915 20.5301 30.3511 20.7305 29.8744 21.4906L29.8342 21.5551C29.3767 22.286 28.5789 22.5031 27.9275 22.075L25.8133 20.6858C25.3255 20.365 24.7407 20.4004 24.2789 20.7782L22.5846 22.1631C22.098 22.5608 21.4781 22.577 20.9785 22.2053L19.0459 20.7658C18.5519 20.3979 17.9394 20.4103 17.4546 20.7968L15.6948 22.2016C15.2224 22.5776 14.6284 22.5999 14.14 22.2593L11.8616 20.6684C11.4133 20.3551 10.873 20.3464 10.4185 20.6454L8.29324 22.0415C6.87798 22.2251 6.18954 21.1803 6.18954 21.1803C6.10987 21.0406 6.04692 20.8948 6 20.7459C6.21795 20.0423 6.74592 19.5 7.43253 19.5H33.5681C34.2411 19.5001 34.7789 20.0343 35 20.7429Z" fill="#7ED63E"/>
<path d="M33.9996 18.3666C34.0039 18.5634 33.9769 18.7531 33.9241 18.9322C33.6865 19.729 32.9241 20.3118 32.0206 20.3118C28.4728 20.3118 19.0231 20.235 17.5979 20.2805C17.5659 20.2817 17.534 20.2828 17.5027 20.2834C15.703 20.349 15.293 20.6268 15.293 21.5507V24.931C15.293 25.1048 15.2199 25.2626 15.1015 25.3767C14.983 25.4907 14.8197 25.5611 14.6393 25.5611C14.2777 25.5611 13.9849 25.843 13.9849 26.1912V27.6635C13.9849 27.813 13.9665 27.9579 13.9309 28.0974C13.729 28.9024 12.9746 29.5 12.0686 29.5H12.0201C10.9901 29.5 10.1566 28.6944 10.1596 27.7025L10.1682 25.0374C10.1688 24.8329 10.2554 24.6473 10.3947 24.5137C10.5347 24.3795 10.7268 24.2968 10.9398 24.2968C11.3658 24.2968 11.7114 23.964 11.7114 23.5538V21.5507C11.7114 20.8662 11.1357 20.3118 10.4249 20.3118H8.01741C6.93404 20.3118 6.02252 19.4885 6.0004 18.4452C5.97829 17.3748 6.87324 16.5 7.97997 16.5H31.9814C33.0653 16.5 33.9781 17.3233 33.9996 18.3666Z" fill="#FF3501"/>
<path d="M32.9996 18.4314C33.0037 18.635 32.9776 18.8313 32.9264 19.0167C29.2856 19.013 20.586 18.939 19.2425 18.9842C17.4194 19.046 17.0083 19.3267 17.0083 20.2992V20.4148C15.2637 20.4826 14.8663 20.7701 14.8663 21.726V25.2237C14.8663 25.4035 14.7954 25.5668 14.6806 25.6848C14.5658 25.8029 14.4075 25.8756 14.2326 25.8756C13.8821 25.8756 13.5983 26.1674 13.5983 26.5276V28.0511C13.5983 28.2058 13.5804 28.3557 13.5459 28.5C12.6855 28.3575 12.0292 27.5887 12.0322 26.664L12.0405 23.9069C12.0411 23.6947 12.125 23.5033 12.2601 23.3651C12.3958 23.2262 12.582 23.1406 12.7885 23.1406C13.2014 23.1406 13.5364 22.7963 13.5364 22.3718V20.2991C13.5364 19.5909 12.9783 19.0173 12.2893 19.0173H9.95563C8.90546 19.0173 8.02187 18.1653 8.00043 17.0859C7.99626 16.8822 8.02244 16.6859 8.07423 16.5H31.0432C32.094 16.5 32.9788 17.3519 32.9996 18.4314Z" fill="#FF5023"/>
<path d="M22 14.5L17.7034 18.4669C17.2729 18.8643 16.7652 19.1472 16.2245 19.3144C14.8912 19.7301 13.3593 19.4473 12.2983 18.4669L8 14.5H22Z" fill="#EEBF00"/>
<path d="M23 14.5L18.5367 18.6198C18.0894 19.0325 17.562 19.3263 17.0003 19.5C16.4392 19.3263 15.9118 19.0325 15.4652 18.6198L11 14.5H23Z" fill="#FFD422"/>
<path d="M35 14.9595C35 14.9903 34.9988 15.0204 34.997 15.0505C34.9732 15.4395 34.7975 15.7903 34.5255 16.0489C34.2321 16.3278 33.8272 16.5 33.3795 16.5H6.62047C5.72574 16.4999 5 15.81 5 14.9595C5 13.1135 5.90018 11.7237 7.25961 10.6784C8.36287 9.82959 9.76924 9.20746 11.2415 8.75121C15.3607 7.4763 20 7.50003 20 7.50003C20 7.50003 35 7.42294 35 14.9595Z" fill="#FFA733"/>
<path d="M35 15.4036C35 15.4361 34.9988 15.4681 34.9969 15.5H9.63827C8.73377 15.5 8 14.769 8 13.8678C8 11.9119 8.91006 10.4394 10.2844 9.33188C10.5051 9.15371 10.7376 8.98545 10.9805 8.82569C15.145 7.47489 19.8353 7.50003 19.8353 7.50003C19.8353 7.50003 35 7.41835 35 15.4036Z" fill="#FFB655"/>
<path d="M27.8071 10.3343C28.0599 10.5982 28.0479 11.0144 27.7805 11.2638C27.513 11.5132 27.0912 11.5014 26.8385 11.2375C26.5857 10.9736 26.1205 10.0592 26.388 9.80976C26.6555 9.56032 27.5544 10.0703 27.8071 10.3343Z" fill="#FFF5CC"/>
<path d="M24.275 13.5838C24.4069 13.9228 24.2354 14.3031 23.8918 14.4333C23.5482 14.5635 23.1628 14.3942 23.0308 14.0552C22.8989 13.7162 22.8214 12.696 23.1649 12.5658C23.5085 12.4357 24.1431 13.2448 24.275 13.5838Z" fill="#FFF5CC"/>
<path d="M20.6384 10.8796C20.6384 11.2427 20.34 11.5371 19.972 11.5371C19.604 11.5371 19.3057 11.2427 19.3057 10.8796C19.3057 10.5165 19.604 9.53662 19.972 9.53662C20.3401 9.53656 20.6384 10.5165 20.6384 10.8796Z" fill="#FFF5CC"/>
<path d="M16.9739 13.9959C16.8818 14.3475 16.5183 14.5589 16.162 14.4681C15.8057 14.3773 15.5914 14.0187 15.6834 13.6671C15.7754 13.3155 16.3127 12.4404 16.6691 12.5312C17.0254 12.622 17.0659 13.6444 16.9739 13.9959Z" fill="#FFF5CC"/>
<path d="M13.3082 11.1319C13.1478 11.4586 12.7493 11.5952 12.418 11.4369C12.0868 11.2786 11.9483 10.8854 12.1088 10.5586C12.2693 10.2318 12.9707 9.47822 13.302 9.63659C13.6332 9.79496 13.4687 10.8051 13.3082 11.1319Z" fill="#FFF5CC"/>
</svg>
