<svg width="40" height="41" viewBox="0 0 40 41" fill="none" xmlns="http://www.w3.org/2000/svg">
<path d="M30.1424 11.8572H27.8364C27.219 11.8572 26.7139 12.269 26.7139 12.7724V14.4286C26.7139 13.9252 27.219 13.5134 27.8364 13.5134H30.1424V11.8572Z" fill="#665E68"/>
<path d="M30.9868 9.96057C29.7631 8.43011 29.9056 8.62751 29.4879 8.07887C28.9867 7.42034 28.6841 7.02293 27.9202 6.79902C27.662 6.7234 27.5149 6.45568 27.5916 6.20109C27.6684 5.94657 27.9399 5.80157 28.1982 5.87724C29.271 6.1917 29.7331 6.79877 30.2682 7.50174C30.6752 8.03643 30.5531 7.86492 31.7516 9.36365C31.9188 9.57187 31.8832 9.87426 31.672 10.0391C31.4608 10.2038 31.154 10.1687 30.9868 9.96057Z" fill="#DFEBFA"/>
<path d="M30.5462 16.1428C30.2955 16.1428 30.0923 16.3383 30.0923 16.5794V29.0768C30.0923 29.9709 29.336 30.6982 28.4063 30.6982C27.4767 30.6982 26.7204 29.9709 26.7204 29.0768V28.8024C26.7204 27.4269 25.5568 26.3078 24.1266 26.3078H24.0626H22.8827C22.632 26.3078 22.4287 26.5032 22.4287 26.7444C22.4287 26.9855 22.632 27.181 22.8827 27.181H24.0626H24.1266C25.0562 27.181 25.8124 27.9083 25.8124 28.8023V29.0768C25.8124 30.4523 26.976 31.5714 28.4063 31.5714C29.8366 31.5714 31.0001 30.4523 31.0001 29.0768V16.5795C31.0002 16.3383 30.797 16.1428 30.5462 16.1428Z" fill="#665E68"/>
<path d="M25.0003 32.4285V5.7408C25.0003 5.33339 24.6536 5 24.2298 5H8.62795C8.20419 5 7.85742 5.33333 7.85742 5.7408V32.4286H25.0003V32.4285Z" fill="#FF4756"/>
<path d="M11.286 5H8.76343C8.26516 5 7.85742 5.33333 7.85742 5.7408V32.4286H10.38V5.7408C10.38 5.33333 10.7877 5 11.286 5Z" fill="#FC2D39"/>
<path d="M24.143 13.5714V6.96552C24.143 6.82673 24.0198 6.71423 23.8677 6.71423H10.704C10.5519 6.71423 10.4287 6.82673 10.4287 6.96552V13.5714H24.143Z" fill="#665E68"/>
<path d="M13.0001 6.71423H10.7428C10.5693 6.71423 10.4287 6.82673 10.4287 6.96552V13.5714H12.686V6.96552C12.686 6.82673 12.8267 6.71423 13.0001 6.71423Z" fill="#554E56"/>
<path d="M19.2579 23.9613L17.0447 21.3679C16.9513 21.2584 16.7636 21.2584 16.6701 21.3679L14.4569 23.9613C12.9839 25.6874 14.3934 28.1429 16.8574 28.1429C19.3214 28.1429 20.731 25.6874 19.2579 23.9613Z" fill="#FFD301"/>
<path d="M17.0428 23.9613L18.1424 22.4245L17.3864 21.3679C17.3081 21.2584 17.1506 21.2584 17.0723 21.3679L15.2165 23.9613C13.9814 25.6874 15.1633 28.1429 17.2293 28.1429C17.5582 28.1429 17.8646 28.0805 18.1424 27.9689C16.6747 27.3795 16.0043 25.4127 17.0428 23.9613Z" fill="#FFC20C"/>
<path d="M31.2487 15.2857C31.1387 15.2857 31.0275 15.2727 30.9273 15.2454L29.5724 14.92C29.2874 14.8423 29.2006 14.6783 29.3784 14.5538C29.5563 14.4292 29.9314 14.3912 30.2164 14.469L31.5713 14.7943C31.8562 14.872 31.9431 15.036 31.7652 15.1606C31.6499 15.2413 31.4516 15.2857 31.2487 15.2857Z" fill="#DFEBFA"/>
<path d="M31.6645 15.5727V15.1412H29.8C29.5552 15.1412 29.356 14.926 29.356 14.6616V10.767C29.356 10.5026 29.5552 10.2874 29.8 10.2874H31.6645V9.28577H29.8C29.0439 9.28577 28.4287 9.95027 28.4287 10.767V14.6617C28.4287 15.4785 29.0439 16.1429 29.8 16.1429H31.8573C31.7372 15.9881 31.6645 15.7892 31.6645 15.5727Z" fill="#7B6C79"/>
<path d="M25.3504 32.4286H7.50676C7.22688 32.4286 7 32.7164 7 33.0715V34.3571C7 34.7122 7.22688 35 7.50676 35H25.3504C25.6303 35 25.8571 34.7122 25.8571 34.3571V33.0715C25.8572 32.7164 25.6303 32.4286 25.3504 32.4286V32.4286Z" fill="#DFEBFA"/>
<path d="M9.74963 34.3571V33.0715C9.74963 32.7164 10.0536 32.4286 10.4286 32.4286H7.67894C7.30397 32.4286 7 32.7164 7 33.0715V34.3571C7 34.7122 7.30397 35 7.67894 35H10.4286C10.0536 35 9.74963 34.7122 9.74963 34.3571Z" fill="#B1DBFC"/>
<path d="M21.2574 8.42859H11.6006C11.4269 8.42859 11.2861 8.54769 11.2861 8.69459V11.5912C11.2861 11.7381 11.4269 11.8572 11.6006 11.8572H21.2574C21.431 11.8572 21.5718 11.7381 21.5718 11.5912V8.69459C21.5718 8.54769 21.431 8.42859 21.2574 8.42859Z" fill="#23A8FE"/>
<path d="M14.3933 11.5912V8.69459C14.3933 8.54769 14.5369 8.42859 14.714 8.42859H12.4633C12.2862 8.42859 12.1426 8.54769 12.1426 8.69459V11.5912C12.1426 11.7381 12.2862 11.8572 12.4633 11.8572H14.714C14.5369 11.8572 14.3933 11.7381 14.3933 11.5912Z" fill="#0193FA"/>
<path d="M31.7338 8.42859H31.1228C30.5837 8.42859 30.1426 8.78889 30.1426 9.22922V15.3422C30.1426 15.7826 30.5837 16.1429 31.1228 16.1429H31.7338C32.2729 16.1429 32.714 15.7826 32.714 15.3422V9.22922C32.7139 8.78889 32.2729 8.42859 31.7338 8.42859Z" fill="#FFD301"/>
<path d="M31.6302 15.3422V9.22922C31.6302 8.91863 31.7229 8.64855 31.8571 8.51596C31.801 8.46059 31.7379 8.42859 31.6709 8.42859H31.4133C31.186 8.42859 31 8.78889 31 9.22922V15.3422C31 15.7826 31.1859 16.1429 31.4133 16.1429H31.6709C31.7379 16.1429 31.8011 16.1109 31.8571 16.0555C31.7228 15.9229 31.6302 15.6528 31.6302 15.3422Z" fill="#FFC20C"/>
<path d="M16.4287 13.5714V17H23.8723C24.0218 17 24.143 16.8937 24.143 16.7626V13.5714H16.4287Z" fill="#FFD301"/>
<path d="M15.5713 13.5714H18.1427V17H15.5713V13.5714Z" fill="#FFC20C"/>
<path d="M12.1426 13.5714H14.714V16.1428H12.1426V13.5714Z" fill="#B1DBFC"/>
<path d="M14.4346 13.6205H16.4071V16.0689H14.4346V13.6205Z" fill="#DFEBFA"/>
<path d="M10.4893 13.6205H12.4618V16.0689H10.4893V13.6205Z" fill="#DFEBFA"/>
<rect x="12.4619" y="13.6205" width="0.12" height="2.44845" fill="#DFEBFA"/>
<path d="M10.4287 16.1429V18.3582C10.4287 18.5548 10.5889 18.7143 10.7865 18.7143H13.0001V16.1428H10.4287V16.1429Z" fill="#B1DBFC"/>
<path d="M12.1426 16.1428V18.7143H14.714V16.1428H12.1426Z" fill="#DFEBFA"/>
<path d="M13.8574 16.1428H16.4289V18.7143H13.8574V16.1428Z" fill="#B1DBFC"/>
<rect x="10.4287" y="16.0873" width="2.57143" height="0.111111" fill="#DFEBFA"/>
<rect x="12.9443" y="16.0873" width="0.111801" height="0.111111" fill="#DFEBFA"/>
<path d="M21.1376 16.1429H17.7204C17.4806 16.1429 17.2861 15.951 17.2861 15.7143C17.2861 15.4776 17.4806 15.2858 17.7204 15.2858H21.1376C21.3774 15.2858 21.5718 15.4776 21.5718 15.7143C21.5718 15.951 21.3774 16.1429 21.1376 16.1429Z" fill="#DFEBFA"/>
</svg>
