<svg width="59" height="59" viewBox="0 0 59 59" fill="none" xmlns="http://www.w3.org/2000/svg">
<g clip-path="url(#clip0_81_6368)">
<path fill-rule="evenodd" clip-rule="evenodd" d="M56.6437 3.8833H2.35296C1.32668 3.8833 0.485352 4.7683 0.485352 5.84851V41.9222L30.9183 43.8402L58.5146 41.9222V5.84851C58.5146 4.7683 57.6734 3.8833 56.6437 3.8833Z" fill="#F9F3F1"/>
<path fill-rule="evenodd" clip-rule="evenodd" d="M37.7455 47.4812L29.4978 45.3748L22.7006 47.4812L17.7979 53.2927L29.8849 55.6685L42.6483 53.2927L37.7455 47.4812Z" fill="#9FACBA"/>
<path fill-rule="evenodd" clip-rule="evenodd" d="M54.8065 5.84851V42.7433L58.5147 41.9223V5.84851C58.5147 4.7683 57.6735 3.8833 56.6438 3.8833H52.9355C54.8065 3.88169 54.8065 4.7683 54.8065 5.84851Z" fill="#DDDAEC"/>
<path fill-rule="evenodd" clip-rule="evenodd" d="M35.558 50.2541C35.663 50.2541 35.7626 50.3005 35.8302 50.3805L38.2876 53.2927L39.5899 54.7161L42.6486 53.2927L37.7459 47.4812L29.9353 44.9325L22.701 47.4812L20.3623 50.254H35.558V50.2541Z" fill="#8696A5"/>
<path fill-rule="evenodd" clip-rule="evenodd" d="M36.3857 27.1124L50.8864 36.1376H51.5128C51.7095 36.1376 51.869 35.9781 51.869 35.7814V14.052C51.869 13.8553 51.7095 13.6958 51.5128 13.6958H49.1062L36.3857 27.1124Z" fill="#B1E4F9"/>
<path fill-rule="evenodd" clip-rule="evenodd" d="M49.1064 13.6958V34.3608L49.1098 35.4356L50.8865 36.1376H51.8691V14.052C51.8691 13.8553 51.7096 13.6958 51.5129 13.6958H49.1064Z" fill="#75CEF8"/>
<path fill-rule="evenodd" clip-rule="evenodd" d="M15.1535 21.1765L11.0281 19.8304L7.35352 21.1765V28.6571L10.9574 30.6761L15.1535 28.6571L16.4996 25.2684L15.1535 21.1765Z" fill="#EB5468"/>
<path fill-rule="evenodd" clip-rule="evenodd" d="M15.1529 21.1765L12.6123 20.3486V29.8785L15.1529 28.657L16.5527 25.1271L15.1529 21.1765Z" fill="#E5384F"/>
<path fill-rule="evenodd" clip-rule="evenodd" d="M42.6492 53.2927H17.7988H15.063C13.4949 53.2927 12.2129 54.5782 12.2129 56.1463V57.785C12.2129 58.4513 12.7581 58.9998 13.4277 58.9998H47.0238C47.6934 58.9998 48.2386 58.4513 48.2386 57.785V56.1463C48.2386 54.5782 46.9532 53.2927 45.3851 53.2927H42.6492Z" fill="#B6C4CF"/>
<path fill-rule="evenodd" clip-rule="evenodd" d="M42.649 53.2927H41.0439C42.6019 53.3029 43.8772 54.585 43.8772 56.1463V57.785C43.8772 58.4513 43.3287 58.9998 42.6624 58.9998H47.0235C47.6931 58.9998 48.2383 58.4513 48.2383 57.785V56.1463C48.2383 54.5782 46.9528 53.2927 45.3847 53.2927H42.649Z" fill="#9FACBA"/>
<path fill-rule="evenodd" clip-rule="evenodd" d="M58.5146 41.9221H0.485352V45.516C0.485352 46.5963 1.32656 47.4813 2.35296 47.4813H22.701H37.7459H56.6437C57.6734 47.4813 58.5146 46.5963 58.5146 45.516V41.9221Z" fill="#B6C4CF"/>
<path fill-rule="evenodd" clip-rule="evenodd" d="M58.5147 41.9221H54.8065V42.1813V45.516C54.8065 46.5963 53.9653 47.4813 52.9355 47.4813H56.6438C57.6735 47.4813 58.5147 46.5963 58.5147 45.516V41.9221Z" fill="#9FACBA"/>
<path fill-rule="evenodd" clip-rule="evenodd" d="M15.1536 21.1765L16.4997 18.0031L15.1536 13.6958H7.70971C7.513 13.6958 7.35352 13.8553 7.35352 14.052V21.1765H15.1536Z" fill="#7FDBAE"/>
<path fill-rule="evenodd" clip-rule="evenodd" d="M15.1535 28.6571H7.35352V35.7816C7.35352 35.9783 7.513 36.1378 7.70971 36.1378H15.1535V28.6571Z" fill="#FEC165"/>
<path fill-rule="evenodd" clip-rule="evenodd" d="M12.6123 21.1765H15.1529L16.4989 18.0031L15.1529 13.6958H12.6123V21.1765Z" fill="#26BB9E"/>
<path fill-rule="evenodd" clip-rule="evenodd" d="M12.6123 28.6571H15.1529V36.1377H12.6123V28.6571Z" fill="#FDB441"/>
<path fill-rule="evenodd" clip-rule="evenodd" d="M15.1533 21.1765V28.657C15.3282 28.4786 28.7883 30.7938 35.7369 27.4591C40.4546 25.1977 41.8444 19.154 41.9251 13.6959H15.1533V21.1765Z" fill="#B1E4F9"/>
<path fill-rule="evenodd" clip-rule="evenodd" d="M41.8442 27.1125L37.1232 22.5359C35.5652 21.5399 33.4587 21.7182 32.1027 23.0743L27.6945 27.4725L19.0195 36.1375H50.886L41.8442 27.1125Z" fill="#7FDBAE"/>
<path fill-rule="evenodd" clip-rule="evenodd" d="M27.6947 27.4726L23.2428 23.0273C22.5665 22.3543 21.4627 22.3543 20.7897 23.0273L15.1533 28.6571V36.1376H19.0197L27.6947 27.4726Z" fill="#7FDBAE"/>
<path fill-rule="evenodd" clip-rule="evenodd" d="M41.8446 27.1124C41.1816 27.3783 40.4717 27.5499 39.7246 27.6071C40.6634 29.5285 41.4205 31.652 41.9422 33.9302C42.1104 34.6704 42.2517 35.4075 42.3628 36.1377H50.8863L49.1062 34.3609L41.8446 27.1124Z" fill="#26BB9E"/>
<path fill-rule="evenodd" clip-rule="evenodd" d="M19.0202 36.1377L27.6952 27.4726L24.2326 24.0167C23.7414 28.2568 20.6758 32.7357 15.9043 36.1378L19.0202 36.1377Z" fill="#26BB9E"/>
<path fill-rule="evenodd" clip-rule="evenodd" d="M54.9535 0H48.5622C48.424 0 48.2983 0.0799727 48.2396 0.205002L46.2594 4.4318L42.7061 12.0301L45.4149 14.1837L48.5981 14.7861L49.1062 13.6958L53.4403 4.4318L55.2762 0.507031C55.3866 0.270916 55.2142 0 54.9535 0Z" fill="#EB5468"/>
<path fill-rule="evenodd" clip-rule="evenodd" d="M46.29 14.3521L48.5984 14.7862L49.1065 13.696L55.2761 0.507031C55.3866 0.270916 55.2142 0 54.9536 0H53.0031L47.0471 12.7335L46.29 14.3521Z" fill="#E5384F"/>
<path fill-rule="evenodd" clip-rule="evenodd" d="M46.5517 19.154L44.0448 16.9465L40.663 16.3979C38.4017 17.0844 37.6177 19.2718 37.3888 21.1629C37.3282 21.6576 37.2441 22.1152 37.123 22.5358C36.7493 23.8618 36.0382 24.8397 34.7142 25.6676C34.4895 25.8082 34.4917 26.1346 34.717 26.2742C37.2834 27.8648 39.7942 27.9316 41.8441 27.1123C45.0711 25.8237 47.1641 22.3408 46.5517 19.154Z" fill="#FEC165"/>
<path fill-rule="evenodd" clip-rule="evenodd" d="M48.5978 14.7862L42.7056 12.0302L41.925 13.6959L40.6631 16.3981L46.5519 19.1541L48.5978 14.7862Z" fill="#375E7D"/>
<path fill-rule="evenodd" clip-rule="evenodd" d="M44.4923 18.1882C45.1013 21.3783 43.0117 24.8612 39.7846 26.15C38.2906 26.7456 36.5543 26.8734 34.7305 26.2846C37.2912 27.8662 39.7948 27.9301 41.8441 27.1124C45.0711 25.8236 47.1641 22.3407 46.5518 19.154L46.0841 17.6094L44.4923 18.1882Z" fill="#FDB441"/>
<path fill-rule="evenodd" clip-rule="evenodd" d="M44.4922 18.1882L46.5517 19.154L48.5975 14.7862L46.5348 13.8237L44.4922 18.1882Z" fill="#2B4D66"/>
<path d="M25.8237 10.4471H7.35319C6.86149 10.4471 6.46289 10.0485 6.46289 9.5568C6.46289 9.0651 6.86149 8.6665 7.35319 8.6665H25.8237C26.3154 8.6665 26.714 9.0651 26.714 9.5568C26.714 10.0485 26.3154 10.4471 25.8237 10.4471Z" fill="#2B4D66"/>
</g>
<defs>
<clipPath id="clip0_81_6368">
<rect width="59" height="59" fill="white"/>
</clipPath>
</defs>
</svg>
