<svg width="92" height="92" viewBox="0 0 92 92" fill="none" xmlns="http://www.w3.org/2000/svg">
<path d="M80.5003 50.7917H57.5003C55.7218 50.7939 54.0168 51.5013 52.7592 52.7589C51.5016 54.0165 50.7942 55.7215 50.792 57.5V80.5C50.7942 82.2785 51.5016 83.9836 52.7592 85.2412C54.0168 86.4988 55.7218 87.2062 57.5003 87.2084H80.5003C82.2788 87.2062 83.9839 86.4988 85.2414 85.2412C86.499 83.9836 87.2065 82.2785 87.2087 80.5V57.5C87.2065 55.7215 86.499 54.0165 85.2414 52.7589C83.9839 51.5013 82.2788 50.7939 80.5003 50.7917ZM57.5003 81.4584C57.2463 81.4579 57.0028 81.3568 56.8232 81.1771C56.6436 80.9975 56.5425 80.7541 56.542 80.5V57.5C56.5425 57.246 56.6436 57.0025 56.8232 56.8229C57.0028 56.6433 57.2463 56.5422 57.5003 56.5417H80.5003C80.7543 56.5422 80.9978 56.6433 81.1774 56.8229C81.357 57.0025 81.4582 57.246 81.4587 57.5V80.5C81.4582 80.7541 81.357 80.9975 81.1774 81.1771C80.9978 81.3568 80.7543 81.4579 80.5003 81.4584H57.5003Z" fill="white"/>
<path d="M69.0004 2.89378C68.1195 2.89193 67.247 3.06428 66.433 3.40093C65.619 3.73758 64.8796 4.23188 64.2574 4.85537L50.8557 18.2571C49.5998 19.5161 48.8945 21.2218 48.8945 23.0001C48.8945 24.7784 49.5998 26.4841 50.8557 27.7431L64.2574 41.1448C65.5159 42.4015 67.2218 43.1073 69.0004 43.1073C70.7789 43.1073 72.4848 42.4015 73.7434 41.1448L87.1451 27.7431C88.4017 26.4845 89.1076 24.7786 89.1076 23.0001C89.1076 21.2215 88.4017 19.5157 87.1451 18.2571L73.7434 4.85537C73.1211 4.23188 72.3817 3.73758 71.5677 3.40093C70.7538 3.06428 69.8812 2.89193 69.0004 2.89378ZM69.0004 37.3601C68.8745 37.3604 68.7498 37.3358 68.6335 37.2876C68.5171 37.2394 68.4116 37.1686 68.3228 37.0793L54.9211 23.6777C54.8321 23.5887 54.7615 23.4831 54.7133 23.3668C54.6651 23.2505 54.6403 23.1259 54.6403 23.0001C54.6403 22.8742 54.6651 22.7496 54.7133 22.6334C54.7615 22.5171 54.8321 22.4115 54.9211 22.3225L68.3228 8.92082C68.4117 8.8318 68.5174 8.76119 68.6336 8.71302C68.7499 8.66484 68.8745 8.64005 69.0004 8.64005C69.1262 8.64005 69.2508 8.66484 69.3671 8.71302C69.4833 8.76119 69.589 8.8318 69.6779 8.92082L83.0796 22.3225C83.1686 22.4115 83.2392 22.5171 83.2874 22.6334C83.3356 22.7496 83.3604 22.8742 83.3604 23.0001C83.3604 23.1259 83.3356 23.2505 83.2874 23.3668C83.2392 23.4831 83.1686 23.5887 83.0796 23.6777L69.6779 37.0793C69.5892 37.1686 69.4836 37.2394 69.3673 37.2876C69.251 37.3358 69.1263 37.3604 69.0004 37.3601Z" fill="white"/>
<path d="M34.5003 50.7917H11.5003C9.72183 50.7939 8.01679 51.5013 6.7592 52.7589C5.50162 54.0165 4.79415 55.7215 4.79199 57.5V80.5C4.79415 82.2785 5.50162 83.9836 6.7592 85.2412C8.01679 86.4988 9.72183 87.2062 11.5003 87.2084H34.5003C36.2788 87.2062 37.9839 86.4988 39.2414 85.2412C40.499 83.9836 41.2065 82.2785 41.2087 80.5V57.5C41.2065 55.7215 40.499 54.0165 39.2414 52.7589C37.9839 51.5013 36.2788 50.7939 34.5003 50.7917ZM11.5003 81.4584C11.2463 81.4579 11.0028 81.3568 10.8232 81.1771C10.6436 80.9975 10.5425 80.7541 10.542 80.5V57.5C10.5425 57.246 10.6436 57.0025 10.8232 56.8229C11.0028 56.6433 11.2463 56.5422 11.5003 56.5417H34.5003C34.7543 56.5422 34.9978 56.6433 35.1774 56.8229C35.3571 57.0025 35.4582 57.246 35.4587 57.5V80.5C35.4582 80.7541 35.3571 80.9975 35.1774 81.1771C34.9978 81.3568 34.7543 81.4579 34.5003 81.4584H11.5003Z" fill="white"/>
<path d="M34.5003 4.79171H11.5003C9.72183 4.79387 8.01679 5.50133 6.7592 6.75892C5.50162 8.01651 4.79415 9.72154 4.79199 11.5V34.5C4.79415 36.2785 5.50162 37.9836 6.7592 39.2412C8.01679 40.4988 9.72183 41.2062 11.5003 41.2084H34.5003C36.2788 41.2062 37.9839 40.4988 39.2414 39.2412C40.499 37.9836 41.2065 36.2785 41.2087 34.5V11.5C41.2065 9.72154 40.499 8.01651 39.2414 6.75892C37.9839 5.50133 36.2788 4.79387 34.5003 4.79171ZM11.5003 35.4584C11.2463 35.4579 11.0028 35.3568 10.8232 35.1771C10.6436 34.9975 10.5425 34.7541 10.542 34.5V11.5C10.5425 11.246 10.6436 11.0026 10.8232 10.8229C11.0028 10.6433 11.2463 10.5422 11.5003 10.5417H34.5003C34.7543 10.5422 34.9978 10.6433 35.1774 10.8229C35.3571 11.0026 35.4582 11.246 35.4587 11.5V34.5C35.4582 34.7541 35.3571 34.9975 35.1774 35.1771C34.9978 35.3568 34.7543 35.4579 34.5003 35.4584H11.5003Z" fill="white"/>
</svg>
