<svg width="40" height="41" viewBox="0 0 40 41" fill="none" xmlns="http://www.w3.org/2000/svg">
<path d="M19.9188 35.5C20.8341 35.5 21.6022 34.8204 21.8158 33.9023C20.5335 32.7009 19.7223 30.9273 19.7223 28.9488C19.7223 26.9399 20.5585 25.1428 21.875 23.9411V15.615C21.875 14.4468 20.9991 13.5 19.9188 13.5H6.956C5.87589 13.5 5 14.4468 5 15.615V33.385C5 34.5532 5.87589 35.5 6.956 35.5" fill="#5B9ED6"/>
<path d="M19.919 13.5H18.4698C19.5502 13.5 20.4261 14.4468 20.4261 15.615V22.8742C20.4261 23.2042 20.3169 23.5228 20.1198 23.7749C19.5236 24.5364 19.0566 25.4197 18.7553 26.3856C18.4453 27.1729 18.2734 28.0389 18.2734 28.9485C18.2734 29.8626 18.4467 30.7328 18.7594 31.5231C18.7615 31.5298 18.7636 31.5365 18.7656 31.5432C19.0529 32.4513 18.4386 33.3974 17.5508 33.3974H6.95603C5.8759 33.3974 5 32.4503 5 31.2821V33.385C5 34.5532 5.8759 35.5 6.95626 35.5H19.919C20.5542 35.5 21.1184 35.1725 21.4757 34.6651C21.4778 34.6621 21.4798 34.6591 21.4821 34.6559C21.4964 34.6353 21.5106 34.6142 21.5244 34.5929C21.528 34.5871 21.5315 34.5814 21.5352 34.5757C21.5471 34.5569 21.559 34.5375 21.5705 34.5179C21.5746 34.5107 21.579 34.5033 21.5831 34.4961C21.5934 34.478 21.6035 34.4596 21.6134 34.441C21.618 34.4326 21.6226 34.4239 21.6269 34.4154C21.6361 34.3978 21.6451 34.38 21.6536 34.3621C21.6581 34.3527 21.6627 34.343 21.6673 34.3333C21.6754 34.3159 21.6832 34.2986 21.6907 34.281C21.6951 34.2705 21.6997 34.2604 21.7038 34.2502C21.7112 34.2326 21.718 34.215 21.7249 34.1973C21.7291 34.1867 21.7332 34.176 21.7371 34.1653C21.7437 34.1472 21.7499 34.1291 21.7561 34.111C21.7598 34.1003 21.7635 34.0897 21.7669 34.079C21.7733 34.0594 21.7791 34.0395 21.7848 34.0197C21.7876 34.0103 21.7906 34.0008 21.7933 33.9914C21.8013 33.9619 21.8089 33.9323 21.816 33.9023C21.7499 33.8403 21.6852 33.7765 21.6217 33.7115C21.6141 33.7038 21.6065 33.6964 21.5989 33.6884C21.5379 33.6254 21.478 33.5609 21.4195 33.4951C21.4112 33.486 21.4032 33.4768 21.3952 33.4676C21.3362 33.4009 21.2786 33.3329 21.2224 33.2632C21.2169 33.2562 21.2111 33.2493 21.2056 33.2423C21.1471 33.1694 21.0897 33.0954 21.0342 33.0197C20.2132 31.9017 19.7223 30.4871 19.7223 28.9488C19.7223 26.9399 20.5587 25.1428 21.875 23.9411V15.615C21.8752 14.4468 20.9993 13.5 19.919 13.5V13.5Z" fill="#4C83B3"/>
<path d="M8.75 11.5H18.125V13.5H8.75V11.5Z" fill="#5A67AD"/>
<path d="M16.25 11.5H18.125V13.5H16.25V11.5Z" fill="#48538A"/>
<path d="M6.875 9.00011V10.7985C6.875 11.186 7.20498 11.5 7.61158 11.5H19.2634C19.6703 11.5 20 11.186 20 10.7985V7.20151C20 6.81405 19.6703 6.5 19.2634 6.5H7.61158C7.20475 6.5 6.875 6.81427 6.875 7.20151V9.00011Z" fill="#5B9ED6"/>
<path d="M16.25 6.5V11.5H19.1646C19.626 11.5 20 11.186 20 10.7985V7.20151C20 6.81405 19.626 6.5 19.1646 6.5H16.25Z" fill="#4C83B3"/>
<path d="M19.0625 25.0001C19.0625 28.0375 16.7541 30.5 13.9062 30.5C11.0587 30.5 8.75 28.0375 8.75 25.0001C8.75 21.9625 11.0587 19.5 13.9062 19.5C16.7541 19.5 19.0625 21.9625 19.0625 25.0001Z" fill="#EF2D57"/>
<path d="M16.8356 20.5C17.4063 21.3833 17.7413 22.4536 17.7413 23.6074C17.7413 26.6357 15.4398 29.0905 12.6009 29.0905C11.519 29.0905 10.5158 28.7334 9.6875 28.1244C10.6146 29.5589 12.165 30.5 13.9221 30.5C16.7612 30.5 19.0625 28.045 19.0625 25.0169C19.0625 23.1427 18.1805 21.4889 16.8356 20.5Z" fill="#D9294F"/>
<path d="M32.1875 28.9999C32.1875 32.5899 29.4593 35.5 26.0936 35.5C22.7282 35.5 20 32.5899 20 28.9999C20 25.4101 22.7282 22.5 26.0936 22.5C29.4593 22.5 32.1875 25.4101 32.1875 28.9999Z" fill="#FCDA55"/>
<path d="M28.9796 23.5C29.712 24.6214 30.147 26.0203 30.147 27.5373C30.147 31.2262 27.5772 34.2165 24.407 34.2165C23.1033 34.2165 21.9012 33.7103 20.9375 32.8581C21.986 34.4634 23.6438 35.5 25.5103 35.5C28.6802 35.5 31.25 32.5097 31.25 28.8208C31.25 26.6491 30.3591 24.72 28.9796 23.5Z" fill="#D9BC4A"/>
<path d="M20.9375 32.8947C21.1766 33.1161 21.4317 33.3187 21.7005 33.5L30.3125 24.3136C30.1425 24.0269 29.9529 23.7547 29.745 23.5C29.7065 23.5227 29.6698 23.5512 29.637 23.5863L21.0184 32.7794C20.9855 32.8145 20.9588 32.8533 20.9375 32.8947Z" fill="#D9BC4A"/>
<path d="M29.4918 14.5641C27.323 15.1205 25.625 17.0091 25.625 19.4573V22.5562C25.6477 22.5559 25.6703 22.5552 25.693 22.5552C29.0433 22.5552 31.7591 25.4351 31.7591 28.9878C31.7591 30.7407 31.0976 32.3296 30.0252 33.4898C30.1203 33.4961 30.2159 33.5 30.3124 33.5C32.9013 33.5 35 31.2745 35 28.5293V19.4573C35 17.0091 33.3305 14.9758 31.1332 14.5641C31.1332 14.5641 30.0537 14.4199 29.4918 14.5641Z" fill="#F084AD"/>
<path d="M31.0865 14.5641C30.4908 14.4786 29.9372 14.4786 29.4252 14.5641C29.4085 14.5673 29.3917 14.5714 29.375 14.5746C31.5737 15.0078 33.238 17.0277 33.238 19.4573V28.5294C33.238 30.6162 32.0101 32.4017 30.2702 33.1385C30.1725 33.2595 30.0709 33.3767 29.9651 33.4898C30.0614 33.4961 30.1581 33.5 30.256 33.5C32.876 33.5 35 31.2745 35 28.5294V19.4573C35 17.0091 33.3103 14.9759 31.0865 14.5641Z" fill="#D47499"/>
<path d="M29.375 23.5C30.7787 24.7406 31.6759 26.6331 31.6759 28.7534C31.6759 30.5975 30.9976 32.2689 29.8976 33.4892C29.9952 33.4956 30.0932 33.5 30.1922 33.5C32.8475 33.5 35 31.159 35 28.2714V23.5L29.375 23.5Z" fill="#EF2D57"/>
<path d="M33.3596 28.2714C33.3596 30.4666 32.2164 32.3445 30.5965 33.1197C30.5543 33.1789 30.5112 33.2368 30.4673 33.2942C30.4597 33.304 30.4521 33.3137 30.4448 33.3234C30.4013 33.3796 30.3573 33.4352 30.3125 33.4892C30.4021 33.4959 30.4922 33.5 30.5831 33.5C33.0225 33.5 35 31.159 35 28.2714V23.5H33.3596V28.2714Z" fill="#CC264B"/>
<path d="M15.7816 24.0005H13.9058V21.9996C13.9058 21.7237 13.696 21.5 13.4374 21.5C13.1787 21.5 12.9692 21.7237 12.9692 21.9996V24.0005H11.0934C10.8347 24.0005 10.625 24.224 10.625 24.4999C10.625 24.7758 10.8347 24.9995 11.0934 24.9995H12.9692V27.0004C12.9692 27.2763 13.1787 27.5 13.4374 27.5C13.696 27.5 13.9058 27.2763 13.9058 27.0004V24.9995H15.7816C16.0403 24.9995 16.25 24.7758 16.25 24.4999C16.25 24.224 16.0403 24.0005 15.7816 24.0005Z" fill="white"/>
<path d="M10.1942 12.4987C9.94352 12.4987 9.74023 12.262 9.74023 11.9701V6.02865C9.74023 5.73672 9.94352 5.5 10.1942 5.5C10.4449 5.5 10.6482 5.73672 10.6482 6.02865V11.9701C10.6482 12.262 10.4449 12.4987 10.1942 12.4987Z" fill="#674297"/>
<path d="M13.453 12.4987C13.2023 12.4987 12.999 12.262 12.999 11.9701V6.02865C12.999 5.73672 13.2023 5.5 13.453 5.5C13.7037 5.5 13.9068 5.73672 13.9068 6.02865V11.9701C13.907 12.262 13.7037 12.4987 13.453 12.4987Z" fill="#674297"/>
<path d="M16.7108 12.4987C16.4601 12.4987 16.2568 12.262 16.2568 11.9701V6.02865C16.2568 5.73672 16.4601 5.5 16.7108 5.5C16.9615 5.5 17.1646 5.73672 17.1646 6.02865V11.9701C17.1648 12.262 16.9615 12.4987 16.7108 12.4987Z" fill="#674297"/>
<path d="M21.4071 33.5C21.287 33.5 21.1668 33.4509 21.075 33.3531C20.8917 33.1574 20.8917 32.8402 21.075 32.6444L29.5104 23.6467C29.694 23.4512 29.9913 23.451 30.1749 23.6467C30.3584 23.8425 30.3584 24.1597 30.1749 24.3554L21.7394 33.3531C21.6475 33.4509 21.5274 33.5 21.4071 33.5Z" fill="#E69326"/>
</svg>
