<svg width="48" height="48" viewBox="0 0 48 48" fill="none" xmlns="http://www.w3.org/2000/svg">
<path d="M20.9062 12.75H27.0938C28.2624 12.75 29.3831 13.2142 30.2094 14.0406C31.0358 14.8669 31.5 15.9876 31.5 17.1562V45.75H16.5V17.1562C16.5 15.9876 16.9642 14.8669 17.7906 14.0406C18.6169 13.2142 19.7376 12.75 20.9062 12.75Z" fill="#F9ADB1"/>
<path d="M21 9.75H27V12.75H21V9.75Z" fill="#EBEBEB"/>
<path d="M21.75 3H26.25V9.75H21.75V3Z" fill="#CDCDCD"/>
<path d="M18.9375 3H21.75V5.25H18V3.9375C18 3.68886 18.0988 3.4504 18.2746 3.27459C18.4504 3.09877 18.6889 3 18.9375 3Z" fill="#EBEBEB"/>
<path d="M16.5 23.25H25.5V35.25H16.5V23.25Z" fill="#FFB8D1"/>
<path d="M31.5 39.75H45V42.75H31.5V39.75Z" fill="#4799CF"/>
<path d="M31.5 32.25H39.75C40.7446 32.25 41.6984 32.6451 42.4017 33.3483C43.1049 34.0516 43.5 35.0054 43.5 36C43.5 36.9946 43.1049 37.9484 42.4017 38.6517C41.6984 39.3549 40.7446 39.75 39.75 39.75H31.5V32.25Z" fill="#FBB540"/>
<path d="M37.1894 36H34.5C34.3011 36 34.1103 35.921 33.9697 35.7804C33.829 35.6397 33.75 35.4489 33.75 35.25C33.75 35.0511 33.829 34.8603 33.9697 34.7197C34.1103 34.579 34.3011 34.5 34.5 34.5H37.1894C37.4273 34.5007 37.6629 34.4541 37.8827 34.3631C38.1024 34.272 38.3019 34.1383 38.4697 33.9697C38.6103 33.829 38.8011 33.75 39 33.75C39.1989 33.75 39.3897 33.829 39.5303 33.9697C39.671 34.1103 39.75 34.3011 39.75 34.5C39.75 34.6989 39.671 34.8897 39.5303 35.0304C39.2236 35.3387 38.8588 35.5832 38.457 35.7497C38.0552 35.9161 37.6243 36.0012 37.1894 36Z" fill="#DA922A"/>
<path d="M43.5 42.75L42.75 45.75H31.5V42.75H43.5Z" fill="#428DC5"/>
<path d="M36.75 29.25C37.9926 29.25 39 28.2426 39 27C39 25.7574 37.9926 24.75 36.75 24.75C35.5074 24.75 34.5 25.7574 34.5 27C34.5 28.2426 35.5074 29.25 36.75 29.25Z" fill="#C0F5F9"/>
<path d="M44.25 24C45.0784 24 45.75 23.3284 45.75 22.5C45.75 21.6716 45.0784 21 44.25 21C43.4216 21 42.75 21.6716 42.75 22.5C42.75 23.3284 43.4216 24 44.25 24Z" fill="#C0F5F9"/>
<path d="M36.75 18.75C37.9926 18.75 39 17.7426 39 16.5C39 15.2574 37.9926 14.25 36.75 14.25C35.5074 14.25 34.5 15.2574 34.5 16.5C34.5 17.7426 35.5074 18.75 36.75 18.75Z" fill="#C0F5F9"/>
<path d="M37.5 16.5C37.9142 16.5 38.25 16.1642 38.25 15.75C38.25 15.3358 37.9142 15 37.5 15C37.0858 15 36.75 15.3358 36.75 15.75C36.75 16.1642 37.0858 16.5 37.5 16.5Z" fill="#E0F8F9"/>
<path d="M37.5 27C37.9142 27 38.25 26.6642 38.25 26.25C38.25 25.8358 37.9142 25.5 37.5 25.5C37.0858 25.5 36.75 25.8358 36.75 26.25C36.75 26.6642 37.0858 27 37.5 27Z" fill="#E0F8F9"/>
<path d="M44.7803 22.8107C45.0732 22.8107 45.3107 22.5732 45.3107 22.2803C45.3107 21.9874 45.0732 21.75 44.7803 21.75C44.4874 21.75 44.25 21.9874 44.25 22.2803C44.25 22.5732 44.4874 22.8107 44.7803 22.8107Z" fill="#E0F8F9"/>
<path d="M14.4375 25.5C13.9899 25.5 13.5607 25.3222 13.2443 25.0057C12.9278 24.6893 12.75 24.2601 12.75 23.8125V22.5H8.25V23.8125C8.25 24.2601 8.07221 24.6893 7.75574 25.0057C7.43927 25.3222 7.01005 25.5 6.5625 25.5C5.81658 25.5 5.10121 25.7963 4.57376 26.3238C4.04632 26.8512 3.75 27.5666 3.75 28.3125V42.9375C3.75 43.6834 4.04632 44.3988 4.57376 44.9262C5.10121 45.4537 5.81658 45.75 6.5625 45.75H14.4375C15.1834 45.75 15.8988 45.4537 16.4262 44.9262C16.9537 44.3988 17.25 43.6834 17.25 42.9375V28.3125C17.25 27.5666 16.9537 26.8512 16.4262 26.3238C15.8988 25.7963 15.1834 25.5 14.4375 25.5Z" fill="#FD9226"/>
<path d="M7.5 19.5H13.5V22.5H7.5V19.5Z" fill="#EBEBEB"/>
<path d="M3.75 30H11.25V40.5H3.75V30Z" fill="#EBEBEB"/>
<path d="M28.5 36.75C28.3011 36.75 28.1103 36.671 27.9697 36.5303C27.829 36.3897 27.75 36.1989 27.75 36V35.25C27.75 35.0511 27.829 34.8603 27.9697 34.7197C28.1103 34.579 28.3011 34.5 28.5 34.5C28.6989 34.5 28.8897 34.579 29.0303 34.7197C29.171 34.8603 29.25 35.0511 29.25 35.25V36C29.25 36.1989 29.171 36.3897 29.0303 36.5303C28.8897 36.671 28.6989 36.75 28.5 36.75Z" fill="#FFBABC"/>
<path d="M28.5 42C28.3011 42 28.1103 41.921 27.9697 41.7803C27.829 41.6397 27.75 41.4489 27.75 41.25V39C27.75 38.8011 27.829 38.6103 27.9697 38.4697C28.1103 38.329 28.3011 38.25 28.5 38.25C28.6989 38.25 28.8897 38.329 29.0303 38.4697C29.171 38.6103 29.25 38.8011 29.25 39V41.25C29.25 41.4489 29.171 41.6397 29.0303 41.7803C28.8897 41.921 28.6989 42 28.5 42Z" fill="#FFBABC"/>
<path d="M8.25 22.5H12.75V24H8.25V22.5Z" fill="#E08122"/>
<path d="M21.75 8.25H26.25V9.75H21.75V8.25Z" fill="#B9B9B9"/>
<path d="M43.5 42.75L43.125 44.25H31.5V42.75H43.5Z" fill="#3C81B4"/>
<path d="M34.5 36H37.1894C37.6243 36.0012 38.0552 35.9161 38.457 35.7497C38.8588 35.5832 39.2236 35.3387 39.5303 35.0304C39.671 34.8897 39.75 34.6989 39.75 34.5C39.75 34.3011 39.671 34.1103 39.5303 33.9697C39.3897 33.829 39.1989 33.75 39 33.75C38.8011 33.75 38.6103 33.829 38.4697 33.9697C38.3019 34.1383 38.1024 34.272 37.8827 34.3631C37.6629 34.4541 37.4273 34.5007 37.1894 34.5H34.5C34.3011 34.5 34.1103 34.579 33.9697 34.7197C33.829 34.8603 33.75 35.0511 33.75 35.25C33.75 35.4489 33.829 35.6397 33.9697 35.7804C34.1103 35.921 34.3011 36 34.5 36Z" fill="black"/>
<path d="M36.75 24C36.1567 24 35.5766 24.1759 35.0833 24.5056C34.5899 24.8352 34.2054 25.3038 33.9784 25.8519C33.7513 26.4001 33.6919 27.0033 33.8076 27.5853C33.9234 28.1672 34.2091 28.7018 34.6287 29.1213C35.0482 29.5409 35.5828 29.8266 36.1647 29.9424C36.7467 30.0581 37.3499 29.9987 37.8981 29.7716C38.4462 29.5446 38.9148 29.1601 39.2444 28.6667C39.5741 28.1734 39.75 27.5933 39.75 27C39.7491 26.2046 39.4328 25.4421 38.8703 24.8797C38.3079 24.3173 37.5454 24.0009 36.75 24ZM36.75 28.5C36.4533 28.5 36.1633 28.412 35.9166 28.2472C35.67 28.0824 35.4777 27.8481 35.3642 27.574C35.2507 27.2999 35.2209 26.9983 35.2788 26.7074C35.3367 26.4164 35.4796 26.1491 35.6893 25.9393C35.8991 25.7296 36.1664 25.5867 36.4574 25.5288C36.7483 25.4709 37.0499 25.5006 37.324 25.6142C37.5981 25.7277 37.8324 25.92 37.9972 26.1666C38.162 26.4133 38.25 26.7033 38.25 27C38.2495 27.3977 38.0913 27.7789 37.8101 28.0601C37.5289 28.3413 37.1477 28.4995 36.75 28.5Z" fill="black"/>
<path d="M44.25 20.25C43.805 20.25 43.37 20.382 43 20.6292C42.63 20.8764 42.3416 21.2278 42.1713 21.639C42.001 22.0501 41.9564 22.5025 42.0432 22.939C42.1301 23.3754 42.3443 23.7763 42.659 24.091C42.9737 24.4057 43.3746 24.62 43.811 24.7068C44.2475 24.7936 44.6999 24.749 45.111 24.5787C45.5222 24.4084 45.8736 24.12 46.1208 23.75C46.368 23.38 46.5 22.945 46.5 22.5C46.4993 21.9035 46.2621 21.3316 45.8403 20.9097C45.4184 20.4879 44.8465 20.2507 44.25 20.25ZM44.25 23.25C44.1017 23.25 43.9567 23.206 43.8333 23.1236C43.71 23.0412 43.6139 22.9241 43.5571 22.787C43.5003 22.65 43.4855 22.4992 43.5144 22.3537C43.5434 22.2082 43.6148 22.0746 43.7197 21.9697C43.8246 21.8648 43.9582 21.7934 44.1037 21.7644C44.2492 21.7355 44.4 21.7503 44.537 21.8071C44.6741 21.8639 44.7912 21.96 44.8736 22.0833C44.956 22.2067 45 22.3517 45 22.5C44.9998 22.6988 44.9207 22.8895 44.7801 23.0301C44.6395 23.1707 44.4488 23.2498 44.25 23.25Z" fill="black"/>
<path d="M36.75 13.5C36.1567 13.5 35.5766 13.6759 35.0833 14.0056C34.5899 14.3352 34.2054 14.8038 33.9784 15.352C33.7513 15.9001 33.6919 16.5033 33.8076 17.0853C33.9234 17.6672 34.2091 18.2018 34.6287 18.6213C35.0482 19.0409 35.5828 19.3266 36.1647 19.4424C36.7467 19.5581 37.3499 19.4987 37.8981 19.2716C38.4462 19.0446 38.9148 18.6601 39.2444 18.1667C39.5741 17.6734 39.75 17.0933 39.75 16.5C39.7491 15.7046 39.4328 14.9421 38.8703 14.3797C38.3079 13.8173 37.5454 13.5009 36.75 13.5ZM36.75 18C36.4533 18 36.1633 17.912 35.9166 17.7472C35.67 17.5824 35.4777 17.3481 35.3642 17.074C35.2507 16.7999 35.2209 16.4983 35.2788 16.2074C35.3367 15.9164 35.4796 15.6491 35.6893 15.4393C35.8991 15.2296 36.1664 15.0867 36.4574 15.0288C36.7483 14.9709 37.0499 15.0006 37.324 15.1142C37.5981 15.2277 37.8324 15.42 37.9972 15.6666C38.162 15.9133 38.25 16.2033 38.25 16.5C38.2495 16.8977 38.0913 17.2789 37.8101 17.5601C37.5289 17.8413 37.1477 17.9995 36.75 18Z" fill="black"/>
<path d="M6.5625 46.5H14.4375C14.939 46.5002 15.4349 46.394 15.8922 46.1882C15.9615 46.2847 16.0528 46.3633 16.1584 46.4175C16.2641 46.4717 16.3812 46.5 16.5 46.5H42.75C42.9173 46.5 43.0797 46.4441 43.2116 46.3411C43.3434 46.2382 43.437 46.0941 43.4776 45.9319L44.0856 43.5H45C45.1989 43.5 45.3897 43.421 45.5303 43.2803C45.671 43.1397 45.75 42.9489 45.75 42.75V39.75C45.75 39.5511 45.671 39.3603 45.5303 39.2197C45.3897 39.079 45.1989 39 45 39H43.1005C43.6808 38.3532 44.0612 37.5521 44.1958 36.6937C44.3303 35.8352 44.2134 34.9562 43.8589 34.1628C43.5045 33.3694 42.9278 32.6957 42.1986 32.2232C41.4694 31.7506 40.6189 31.4994 39.75 31.5H32.25V17.1562C32.2483 15.903 31.7907 14.6932 30.9628 13.7524C30.1348 12.8116 28.9929 12.2041 27.75 12.0432V9.75C27.75 9.55109 27.671 9.36032 27.5303 9.21967C27.3897 9.07902 27.1989 9 27 9V3C27 2.80109 26.921 2.61032 26.7803 2.46967C26.6397 2.32902 26.4489 2.25 26.25 2.25H18.9375C18.4901 2.25052 18.0612 2.42848 17.7448 2.74483C17.4285 3.06119 17.2505 3.49011 17.25 3.9375V5.25C17.25 5.44891 17.329 5.63968 17.4697 5.78033C17.6103 5.92098 17.8011 6 18 6H21V9C20.8011 9 20.6103 9.07902 20.4697 9.21967C20.329 9.36032 20.25 9.55109 20.25 9.75V12.0432C19.0071 12.2041 17.8652 12.8116 17.0372 13.7524C16.2093 14.6932 15.7517 15.903 15.75 17.1562V25.0016C15.3324 24.8352 14.887 24.7498 14.4375 24.75C14.1889 24.7497 13.9506 24.6509 13.7749 24.4751C13.5991 24.2994 13.5003 24.0611 13.5 23.8125V23.25C13.6989 23.25 13.8897 23.171 14.0303 23.0303C14.171 22.8897 14.25 22.6989 14.25 22.5V19.5C14.25 19.3011 14.171 19.1103 14.0303 18.9697C13.8897 18.829 13.6989 18.75 13.5 18.75H7.5C7.30109 18.75 7.11032 18.829 6.96967 18.9697C6.82902 19.1103 6.75 19.3011 6.75 19.5V22.5C6.75 22.6989 6.82902 22.8897 6.96967 23.0303C7.11032 23.171 7.30109 23.25 7.5 23.25V23.8125C7.49973 24.0611 7.40087 24.2994 7.22511 24.4751C7.04936 24.6509 6.81106 24.7497 6.5625 24.75C5.61799 24.7511 4.71248 25.1267 4.04461 25.7946C3.37674 26.4625 3.00107 27.368 3 28.3125V42.9375C3.00107 43.882 3.37674 44.7875 4.04461 45.4554C4.71248 46.1233 5.61799 46.4989 6.5625 46.5ZM17.25 26.1298V24H24.75V34.5H18V28.3125C18.0006 27.5216 17.7366 26.7533 17.25 26.1298ZM42.1644 45H32.25V43.5H42.5394L42.1644 45ZM44.25 42H32.25V40.5H44.25V42ZM39.75 33C40.5456 33 41.3087 33.3161 41.8713 33.8787C42.4339 34.4413 42.75 35.2044 42.75 36C42.75 36.7956 42.4339 37.5587 41.8713 38.1213C41.3087 38.6839 40.5456 39 39.75 39H32.25V33H39.75ZM21.75 10.5H26.25V12H21.75V10.5ZM18.75 4.5V3.9375C18.75 3.88777 18.7698 3.84008 18.8049 3.80492C18.8401 3.76975 18.8878 3.75 18.9375 3.75H21V4.5H18.75ZM22.5 3.75H25.5V9H22.5V3.75ZM20.9062 13.5H27.0938C28.0631 13.5011 28.9925 13.8867 29.6779 14.5721C30.3633 15.2575 30.7489 16.1869 30.75 17.1562V45H17.3394C17.7696 44.3983 18.0006 43.6771 18 42.9375V36H25.5C25.6989 36 25.8897 35.921 26.0303 35.7803C26.171 35.6397 26.25 35.4489 26.25 35.25V23.25C26.25 23.0511 26.171 22.8603 26.0303 22.7197C25.8897 22.579 25.6989 22.5 25.5 22.5H17.25V17.1562C17.2511 16.1869 17.6367 15.2575 18.3221 14.5721C19.0075 13.8867 19.9369 13.5011 20.9062 13.5ZM8.25 20.25H12.75V21.75H8.25V20.25ZM6.5625 26.25C7.20874 26.2493 7.82831 25.9922 8.28528 25.5353C8.74224 25.0783 8.99928 24.4587 9 23.8125V23.25H12V23.8125C12.0007 24.4587 12.2578 25.0783 12.7147 25.5353C13.1717 25.9922 13.7913 26.2493 14.4375 26.25C14.9843 26.2506 15.5086 26.4681 15.8952 26.8548C16.2819 27.2414 16.4994 27.7657 16.5 28.3125V42.9375C16.4994 43.4843 16.2819 44.0086 15.8952 44.3952C15.5086 44.7819 14.9843 44.9994 14.4375 45H6.5625C6.01568 44.9994 5.49144 44.7819 5.10478 44.3952C4.71812 44.0086 4.50062 43.4843 4.5 42.9375V41.25H11.25C11.4489 41.25 11.6397 41.171 11.7803 41.0303C11.921 40.8897 12 40.6989 12 40.5V30C12 29.8011 11.921 29.6103 11.7803 29.4697C11.6397 29.329 11.4489 29.25 11.25 29.25H4.5V28.3125C4.50062 27.7657 4.71812 27.2414 5.10478 26.8548C5.49144 26.4681 6.01568 26.2506 6.5625 26.25ZM4.5 30.75H10.5V39.75H4.5V30.75Z" fill="black"/>
<path d="M28.5 36.75C28.6989 36.75 28.8897 36.671 29.0303 36.5303C29.171 36.3897 29.25 36.1989 29.25 36V35.25C29.25 35.0511 29.171 34.8603 29.0303 34.7197C28.8897 34.579 28.6989 34.5 28.5 34.5C28.3011 34.5 28.1103 34.579 27.9697 34.7197C27.829 34.8603 27.75 35.0511 27.75 35.25V36C27.75 36.1989 27.829 36.3897 27.9697 36.5303C28.1103 36.671 28.3011 36.75 28.5 36.75Z" fill="black"/>
<path d="M28.5 42C28.6989 42 28.8897 41.921 29.0303 41.7803C29.171 41.6397 29.25 41.4489 29.25 41.25V39C29.25 38.8011 29.171 38.6103 29.0303 38.4697C28.8897 38.329 28.6989 38.25 28.5 38.25C28.3011 38.25 28.1103 38.329 27.9697 38.4697C27.829 38.6103 27.75 38.8011 27.75 39V41.25C27.75 41.4489 27.829 41.6397 27.9697 41.7803C28.1103 41.921 28.3011 42 28.5 42Z" fill="black"/>
</svg>
